<mxfile host="Electron" modified="2024-03-22T18:44:53.905Z" agent="Mozilla/5.0 (Macintosh; Intel Mac OS X 10_15_7) AppleWebKit/537.36 (KHTML, like Gecko) draw.io/21.6.8 Chrome/114.0.5735.289 Electron/25.5.0 Safari/537.36" etag="n70jW2bHJR5w6kjbGWBZ" version="21.6.8" type="device">
  <diagram name="1" id="W-HfDgVkH2f7rBWBwGvq">
    <mxGraphModel dx="1036" dy="512" grid="0" gridSize="10" guides="1" tooltips="1" connect="1" arrows="1" fold="1" page="1" pageScale="1" pageWidth="1169" pageHeight="827" math="0" shadow="0">
      <root>
        <mxCell id="0" />
        <mxCell id="1" parent="0" />
        <mxCell id="o8l_43wtQ8dbo9lP84ha-5" value="Процесс входа в систему" style="swimlane;html=1;childLayout=stackLayout;resizeParent=1;resizeParentMax=0;horizontal=0;startSize=20;horizontalStack=0;whiteSpace=wrap;fontStyle=0;fontSize=11;" parent="1" vertex="1">
          <mxGeometry x="29" y="17" width="981" height="465" as="geometry" />
        </mxCell>
        <mxCell id="o8l_43wtQ8dbo9lP84ha-6" value="Неавторизованный" style="swimlane;html=1;startSize=20;horizontal=0;fontStyle=0;fontSize=11;" parent="o8l_43wtQ8dbo9lP84ha-5" vertex="1">
          <mxGeometry x="20" width="961" height="255" as="geometry" />
        </mxCell>
        <mxCell id="-iVh2kzE6NEnTaStnf93-14" value="" style="rounded=0;whiteSpace=wrap;html=1;dashed=1;" vertex="1" parent="o8l_43wtQ8dbo9lP84ha-6">
          <mxGeometry x="516" y="12" width="204" height="121" as="geometry" />
        </mxCell>
        <mxCell id="-iVh2kzE6NEnTaStnf93-9" value="" style="rounded=0;whiteSpace=wrap;html=1;dashed=1;" vertex="1" parent="o8l_43wtQ8dbo9lP84ha-6">
          <mxGeometry x="49" y="12" width="454" height="206" as="geometry" />
        </mxCell>
        <mxCell id="o8l_43wtQ8dbo9lP84ha-9" value="Войти в&lt;br&gt;систему" style="points=[[0.145,0.145,0],[0.5,0,0],[0.855,0.145,0],[1,0.5,0],[0.855,0.855,0],[0.5,1,0],[0.145,0.855,0],[0,0.5,0]];shape=mxgraph.bpmn.event;html=1;verticalLabelPosition=bottom;labelBackgroundColor=#ffffff;verticalAlign=top;align=center;perimeter=ellipsePerimeter;outlineConnect=0;aspect=fixed;outline=standard;symbol=general;fontSize=11;" parent="o8l_43wtQ8dbo9lP84ha-6" vertex="1">
          <mxGeometry x="70" y="70" width="30" height="30" as="geometry" />
        </mxCell>
        <mxCell id="o8l_43wtQ8dbo9lP84ha-12" style="edgeStyle=orthogonalEdgeStyle;rounded=0;orthogonalLoop=1;jettySize=auto;html=1;exitX=1;exitY=0.5;exitDx=0;exitDy=0;exitPerimeter=0;entryX=0;entryY=0.5;entryDx=0;entryDy=0;entryPerimeter=0;fontSize=11;" parent="o8l_43wtQ8dbo9lP84ha-6" source="o8l_43wtQ8dbo9lP84ha-9" target="o8l_43wtQ8dbo9lP84ha-10" edge="1">
          <mxGeometry relative="1" as="geometry" />
        </mxCell>
        <mxCell id="o8l_43wtQ8dbo9lP84ha-16" value="Пользователь зарегистрирован&lt;span style=&quot;background-color: rgb(255, 255, 255); font-size: 11px;&quot;&gt;?&lt;/span&gt;" style="text;html=1;strokeColor=none;fillColor=none;align=center;verticalAlign=middle;whiteSpace=wrap;rounded=0;fontSize=11;" parent="o8l_43wtQ8dbo9lP84ha-6" vertex="1">
          <mxGeometry x="105" y="36" width="110" height="30" as="geometry" />
        </mxCell>
        <mxCell id="o8l_43wtQ8dbo9lP84ha-24" value="Открыть окно регистрации" style="points=[[0.25,0,0],[0.5,0,0],[0.75,0,0],[1,0.25,0],[1,0.5,0],[1,0.75,0],[0.75,1,0],[0.5,1,0],[0.25,1,0],[0,0.75,0],[0,0.5,0],[0,0.25,0]];shape=mxgraph.bpmn.task;whiteSpace=wrap;rectStyle=rounded;size=10;html=1;container=1;expand=0;collapsible=0;taskMarker=abstract;fontSize=11;" parent="o8l_43wtQ8dbo9lP84ha-6" vertex="1">
          <mxGeometry x="270" y="55" width="90" height="60" as="geometry" />
        </mxCell>
        <mxCell id="o8l_43wtQ8dbo9lP84ha-25" value="Ввести данные для регистрации" style="points=[[0.25,0,0],[0.5,0,0],[0.75,0,0],[1,0.25,0],[1,0.5,0],[1,0.75,0],[0.75,1,0],[0.5,1,0],[0.25,1,0],[0,0.75,0],[0,0.5,0],[0,0.25,0]];shape=mxgraph.bpmn.task;whiteSpace=wrap;rectStyle=rounded;size=10;html=1;container=1;expand=0;collapsible=0;taskMarker=abstract;fontSize=11;" parent="o8l_43wtQ8dbo9lP84ha-6" vertex="1">
          <mxGeometry x="400" y="55" width="90" height="60" as="geometry" />
        </mxCell>
        <mxCell id="o8l_43wtQ8dbo9lP84ha-26" style="edgeStyle=orthogonalEdgeStyle;rounded=0;orthogonalLoop=1;jettySize=auto;html=1;exitX=1;exitY=0.5;exitDx=0;exitDy=0;exitPerimeter=0;entryX=0;entryY=0.5;entryDx=0;entryDy=0;entryPerimeter=0;fontSize=11;" parent="o8l_43wtQ8dbo9lP84ha-6" source="o8l_43wtQ8dbo9lP84ha-24" target="o8l_43wtQ8dbo9lP84ha-25" edge="1">
          <mxGeometry relative="1" as="geometry" />
        </mxCell>
        <mxCell id="o8l_43wtQ8dbo9lP84ha-10" value="" style="points=[[0.25,0.25,0],[0.5,0,0],[0.75,0.25,0],[1,0.5,0],[0.75,0.75,0],[0.5,1,0],[0.25,0.75,0],[0,0.5,0]];shape=mxgraph.bpmn.gateway2;html=1;verticalLabelPosition=bottom;labelBackgroundColor=#ffffff;verticalAlign=top;align=center;perimeter=rhombusPerimeter;outlineConnect=0;outline=none;symbol=none;gwType=exclusive;fontSize=11;" parent="o8l_43wtQ8dbo9lP84ha-6" vertex="1">
          <mxGeometry x="145" y="70" width="30" height="30" as="geometry" />
        </mxCell>
        <mxCell id="o8l_43wtQ8dbo9lP84ha-30" style="edgeStyle=orthogonalEdgeStyle;rounded=0;orthogonalLoop=1;jettySize=auto;html=1;exitX=1;exitY=0.5;exitDx=0;exitDy=0;exitPerimeter=0;entryX=0;entryY=0.5;entryDx=0;entryDy=0;entryPerimeter=0;fontSize=11;" parent="o8l_43wtQ8dbo9lP84ha-6" source="o8l_43wtQ8dbo9lP84ha-10" target="o8l_43wtQ8dbo9lP84ha-24" edge="1">
          <mxGeometry relative="1" as="geometry" />
        </mxCell>
        <mxCell id="o8l_43wtQ8dbo9lP84ha-20" value="" style="points=[[0.25,0.25,0],[0.5,0,0],[0.75,0.25,0],[1,0.5,0],[0.75,0.75,0],[0.5,1,0],[0.25,0.75,0],[0,0.5,0]];shape=mxgraph.bpmn.gateway2;html=1;verticalLabelPosition=bottom;labelBackgroundColor=#ffffff;verticalAlign=top;align=center;perimeter=rhombusPerimeter;outlineConnect=0;outline=none;symbol=none;gwType=exclusive;fontSize=11;" parent="o8l_43wtQ8dbo9lP84ha-6" vertex="1">
          <mxGeometry x="660" y="70" width="30" height="30" as="geometry" />
        </mxCell>
        <mxCell id="o8l_43wtQ8dbo9lP84ha-29" style="edgeStyle=orthogonalEdgeStyle;rounded=0;orthogonalLoop=1;jettySize=auto;html=1;exitX=1;exitY=0.5;exitDx=0;exitDy=0;exitPerimeter=0;entryX=0;entryY=0.5;entryDx=0;entryDy=0;entryPerimeter=0;fontSize=11;" parent="o8l_43wtQ8dbo9lP84ha-6" source="o8l_43wtQ8dbo9lP84ha-27" target="o8l_43wtQ8dbo9lP84ha-20" edge="1">
          <mxGeometry relative="1" as="geometry" />
        </mxCell>
        <mxCell id="o8l_43wtQ8dbo9lP84ha-32" value="&lt;span style=&quot;background-color: rgb(251, 251, 251); font-size: 11px;&quot;&gt;Регистрация успешна&lt;/span&gt;&lt;span style=&quot;background-color: rgb(255, 255, 255); font-size: 11px;&quot;&gt;?&lt;/span&gt;" style="text;html=1;strokeColor=none;fillColor=none;align=center;verticalAlign=middle;whiteSpace=wrap;rounded=0;fontSize=11;" parent="o8l_43wtQ8dbo9lP84ha-6" vertex="1">
          <mxGeometry x="620" y="30" width="110" height="30" as="geometry" />
        </mxCell>
        <mxCell id="o8l_43wtQ8dbo9lP84ha-37" style="edgeStyle=orthogonalEdgeStyle;orthogonalLoop=1;jettySize=auto;html=1;exitX=0.5;exitY=1;exitDx=0;exitDy=0;exitPerimeter=0;entryX=1;entryY=0.5;entryDx=0;entryDy=0;entryPerimeter=0;rounded=1;fontSize=11;" parent="o8l_43wtQ8dbo9lP84ha-6" source="o8l_43wtQ8dbo9lP84ha-20" target="o8l_43wtQ8dbo9lP84ha-36" edge="1">
          <mxGeometry relative="1" as="geometry" />
        </mxCell>
        <mxCell id="o8l_43wtQ8dbo9lP84ha-38" style="edgeStyle=orthogonalEdgeStyle;rounded=1;orthogonalLoop=1;jettySize=auto;html=1;exitX=0;exitY=0.5;exitDx=0;exitDy=0;exitPerimeter=0;entryX=0.5;entryY=1;entryDx=0;entryDy=0;entryPerimeter=0;fontSize=11;" parent="o8l_43wtQ8dbo9lP84ha-6" source="o8l_43wtQ8dbo9lP84ha-36" target="o8l_43wtQ8dbo9lP84ha-24" edge="1">
          <mxGeometry relative="1" as="geometry" />
        </mxCell>
        <mxCell id="o8l_43wtQ8dbo9lP84ha-27" value="Проверить результат" style="points=[[0.25,0,0],[0.5,0,0],[0.75,0,0],[1,0.25,0],[1,0.5,0],[1,0.75,0],[0.75,1,0],[0.5,1,0],[0.25,1,0],[0,0.75,0],[0,0.5,0],[0,0.25,0]];shape=mxgraph.bpmn.task;whiteSpace=wrap;rectStyle=rounded;size=10;html=1;container=1;expand=0;collapsible=0;taskMarker=abstract;fontSize=11;" parent="o8l_43wtQ8dbo9lP84ha-6" vertex="1">
          <mxGeometry x="530" y="55" width="90" height="60" as="geometry" />
        </mxCell>
        <mxCell id="o8l_43wtQ8dbo9lP84ha-28" style="edgeStyle=orthogonalEdgeStyle;rounded=0;orthogonalLoop=1;jettySize=auto;html=1;exitX=1;exitY=0.5;exitDx=0;exitDy=0;exitPerimeter=0;entryX=0;entryY=0.5;entryDx=0;entryDy=0;entryPerimeter=0;fontSize=11;" parent="o8l_43wtQ8dbo9lP84ha-6" source="o8l_43wtQ8dbo9lP84ha-25" target="o8l_43wtQ8dbo9lP84ha-27" edge="1">
          <mxGeometry relative="1" as="geometry" />
        </mxCell>
        <mxCell id="o8l_43wtQ8dbo9lP84ha-36" value="Вывести сообщение об ошибке" style="points=[[0.25,0,0],[0.5,0,0],[0.75,0,0],[1,0.25,0],[1,0.5,0],[1,0.75,0],[0.75,1,0],[0.5,1,0],[0.25,1,0],[0,0.75,0],[0,0.5,0],[0,0.25,0]];shape=mxgraph.bpmn.task;whiteSpace=wrap;rectStyle=rounded;size=10;html=1;container=1;expand=0;collapsible=0;taskMarker=abstract;fontSize=11;" parent="o8l_43wtQ8dbo9lP84ha-6" vertex="1">
          <mxGeometry x="400" y="150" width="90" height="60" as="geometry" />
        </mxCell>
        <mxCell id="-iVh2kzE6NEnTaStnf93-25" value="&lt;font style=&quot;font-size: 8px;&quot;&gt;(клиент)&lt;/font&gt;" style="text;html=1;strokeColor=none;fillColor=none;align=center;verticalAlign=middle;whiteSpace=wrap;rounded=0;" vertex="1" parent="o8l_43wtQ8dbo9lP84ha-6">
          <mxGeometry x="45" y="6" width="60" height="30" as="geometry" />
        </mxCell>
        <mxCell id="-iVh2kzE6NEnTaStnf93-26" value="&lt;font style=&quot;font-size: 8px;&quot;&gt;(сервер)&lt;/font&gt;" style="text;html=1;strokeColor=none;fillColor=none;align=center;verticalAlign=middle;whiteSpace=wrap;rounded=0;" vertex="1" parent="o8l_43wtQ8dbo9lP84ha-6">
          <mxGeometry x="511" y="9" width="60" height="30" as="geometry" />
        </mxCell>
        <mxCell id="o8l_43wtQ8dbo9lP84ha-7" value="Авторизованный" style="swimlane;html=1;startSize=20;horizontal=0;fontStyle=0;fontSize=11;" parent="o8l_43wtQ8dbo9lP84ha-5" vertex="1">
          <mxGeometry x="20" y="255" width="961" height="210" as="geometry" />
        </mxCell>
        <mxCell id="-iVh2kzE6NEnTaStnf93-19" value="" style="rounded=0;whiteSpace=wrap;html=1;dashed=1;" vertex="1" parent="o8l_43wtQ8dbo9lP84ha-7">
          <mxGeometry x="252" y="6" width="254" height="178" as="geometry" />
        </mxCell>
        <mxCell id="-iVh2kzE6NEnTaStnf93-21" value="" style="rounded=0;whiteSpace=wrap;html=1;dashed=1;" vertex="1" parent="o8l_43wtQ8dbo9lP84ha-7">
          <mxGeometry x="866" y="6" width="78" height="121" as="geometry" />
        </mxCell>
        <mxCell id="-iVh2kzE6NEnTaStnf93-20" value="" style="rounded=0;whiteSpace=wrap;html=1;dashed=1;" vertex="1" parent="o8l_43wtQ8dbo9lP84ha-7">
          <mxGeometry x="745" y="6" width="114" height="121" as="geometry" />
        </mxCell>
        <mxCell id="-iVh2kzE6NEnTaStnf93-18" value="" style="rounded=0;whiteSpace=wrap;html=1;dashed=1;" vertex="1" parent="o8l_43wtQ8dbo9lP84ha-7">
          <mxGeometry x="516" y="6" width="219" height="121" as="geometry" />
        </mxCell>
        <mxCell id="o8l_43wtQ8dbo9lP84ha-15" value="Ввести логин и пароль" style="points=[[0.25,0,0],[0.5,0,0],[0.75,0,0],[1,0.25,0],[1,0.5,0],[1,0.75,0],[0.75,1,0],[0.5,1,0],[0.25,1,0],[0,0.75,0],[0,0.5,0],[0,0.25,0]];shape=mxgraph.bpmn.task;whiteSpace=wrap;rectStyle=rounded;size=10;html=1;container=1;expand=0;collapsible=0;taskMarker=abstract;fontSize=11;" parent="o8l_43wtQ8dbo9lP84ha-7" vertex="1">
          <mxGeometry x="399" y="25" width="90" height="60" as="geometry" />
        </mxCell>
        <mxCell id="o8l_43wtQ8dbo9lP84ha-13" value="Открыть окно авторизации" style="points=[[0.25,0,0],[0.5,0,0],[0.75,0,0],[1,0.25,0],[1,0.5,0],[1,0.75,0],[0.75,1,0],[0.5,1,0],[0.25,1,0],[0,0.75,0],[0,0.5,0],[0,0.25,0]];shape=mxgraph.bpmn.task;whiteSpace=wrap;rectStyle=rounded;size=10;html=1;container=1;expand=0;collapsible=0;taskMarker=abstract;fontSize=11;" parent="o8l_43wtQ8dbo9lP84ha-7" vertex="1">
          <mxGeometry x="264" y="25" width="90" height="60" as="geometry" />
        </mxCell>
        <mxCell id="o8l_43wtQ8dbo9lP84ha-17" style="edgeStyle=orthogonalEdgeStyle;rounded=0;orthogonalLoop=1;jettySize=auto;html=1;exitX=1;exitY=0.5;exitDx=0;exitDy=0;exitPerimeter=0;entryX=0;entryY=0.5;entryDx=0;entryDy=0;entryPerimeter=0;fontSize=11;" parent="o8l_43wtQ8dbo9lP84ha-7" source="o8l_43wtQ8dbo9lP84ha-13" target="o8l_43wtQ8dbo9lP84ha-15" edge="1">
          <mxGeometry relative="1" as="geometry">
            <mxPoint x="414" y="-45" as="targetPoint" />
          </mxGeometry>
        </mxCell>
        <mxCell id="o8l_43wtQ8dbo9lP84ha-18" value="Проверить результат" style="points=[[0.25,0,0],[0.5,0,0],[0.75,0,0],[1,0.25,0],[1,0.5,0],[1,0.75,0],[0.75,1,0],[0.5,1,0],[0.25,1,0],[0,0.75,0],[0,0.5,0],[0,0.25,0]];shape=mxgraph.bpmn.task;whiteSpace=wrap;rectStyle=rounded;size=10;html=1;container=1;expand=0;collapsible=0;taskMarker=abstract;fontSize=11;" parent="o8l_43wtQ8dbo9lP84ha-7" vertex="1">
          <mxGeometry x="529" y="25" width="90" height="60" as="geometry" />
        </mxCell>
        <mxCell id="o8l_43wtQ8dbo9lP84ha-19" style="edgeStyle=orthogonalEdgeStyle;rounded=0;orthogonalLoop=1;jettySize=auto;html=1;exitX=1;exitY=0.5;exitDx=0;exitDy=0;exitPerimeter=0;entryX=0;entryY=0.5;entryDx=0;entryDy=0;entryPerimeter=0;fontSize=11;" parent="o8l_43wtQ8dbo9lP84ha-7" source="o8l_43wtQ8dbo9lP84ha-15" target="o8l_43wtQ8dbo9lP84ha-18" edge="1">
          <mxGeometry relative="1" as="geometry" />
        </mxCell>
        <mxCell id="o8l_43wtQ8dbo9lP84ha-39" value="" style="points=[[0.25,0.25,0],[0.5,0,0],[0.75,0.25,0],[1,0.5,0],[0.75,0.75,0],[0.5,1,0],[0.25,0.75,0],[0,0.5,0]];shape=mxgraph.bpmn.gateway2;html=1;verticalLabelPosition=bottom;labelBackgroundColor=#ffffff;verticalAlign=top;align=center;perimeter=rhombusPerimeter;outlineConnect=0;outline=none;symbol=none;gwType=exclusive;fontSize=11;" parent="o8l_43wtQ8dbo9lP84ha-7" vertex="1">
          <mxGeometry x="659" y="40" width="30" height="30" as="geometry" />
        </mxCell>
        <mxCell id="o8l_43wtQ8dbo9lP84ha-40" value="&lt;span style=&quot;background-color: rgb(251, 251, 251); font-size: 11px;&quot;&gt;Авторизация успешна&lt;/span&gt;&lt;span style=&quot;background-color: rgb(255, 255, 255); font-size: 11px;&quot;&gt;?&lt;/span&gt;" style="text;html=1;strokeColor=none;fillColor=none;align=center;verticalAlign=middle;whiteSpace=wrap;rounded=0;fontSize=11;" parent="o8l_43wtQ8dbo9lP84ha-7" vertex="1">
          <mxGeometry x="619" y="6" width="110" height="30" as="geometry" />
        </mxCell>
        <mxCell id="o8l_43wtQ8dbo9lP84ha-43" value="Вывести сообщение об ошибке" style="points=[[0.25,0,0],[0.5,0,0],[0.75,0,0],[1,0.25,0],[1,0.5,0],[1,0.75,0],[0.75,1,0],[0.5,1,0],[0.25,1,0],[0,0.75,0],[0,0.5,0],[0,0.25,0]];shape=mxgraph.bpmn.task;whiteSpace=wrap;rectStyle=rounded;size=10;html=1;container=1;expand=0;collapsible=0;taskMarker=abstract;fontSize=11;" parent="o8l_43wtQ8dbo9lP84ha-7" vertex="1">
          <mxGeometry x="399" y="115" width="90" height="60" as="geometry" />
        </mxCell>
        <mxCell id="o8l_43wtQ8dbo9lP84ha-44" style="edgeStyle=orthogonalEdgeStyle;shape=connector;rounded=1;orthogonalLoop=1;jettySize=auto;html=1;exitX=1;exitY=0.5;exitDx=0;exitDy=0;exitPerimeter=0;entryX=0;entryY=0.5;entryDx=0;entryDy=0;entryPerimeter=0;labelBackgroundColor=default;strokeColor=default;align=center;verticalAlign=middle;fontFamily=Helvetica;fontSize=11;fontColor=default;endArrow=classic;" parent="o8l_43wtQ8dbo9lP84ha-7" source="o8l_43wtQ8dbo9lP84ha-18" target="o8l_43wtQ8dbo9lP84ha-39" edge="1">
          <mxGeometry relative="1" as="geometry" />
        </mxCell>
        <mxCell id="o8l_43wtQ8dbo9lP84ha-45" style="edgeStyle=orthogonalEdgeStyle;shape=connector;rounded=1;orthogonalLoop=1;jettySize=auto;html=1;exitX=1;exitY=0.5;exitDx=0;exitDy=0;exitPerimeter=0;entryX=0;entryY=0.5;entryDx=0;entryDy=0;entryPerimeter=0;labelBackgroundColor=default;strokeColor=default;align=center;verticalAlign=middle;fontFamily=Helvetica;fontSize=11;fontColor=default;endArrow=classic;" parent="o8l_43wtQ8dbo9lP84ha-7" source="o8l_43wtQ8dbo9lP84ha-39" target="o8l_43wtQ8dbo9lP84ha-49" edge="1">
          <mxGeometry relative="1" as="geometry">
            <mxPoint x="769" y="55.000000000000114" as="targetPoint" />
          </mxGeometry>
        </mxCell>
        <mxCell id="o8l_43wtQ8dbo9lP84ha-46" value="Да" style="edgeLabel;html=1;align=center;verticalAlign=middle;resizable=0;points=[];fontSize=11;fontFamily=Helvetica;fontColor=default;" parent="o8l_43wtQ8dbo9lP84ha-45" vertex="1" connectable="0">
          <mxGeometry x="-0.2949" relative="1" as="geometry">
            <mxPoint x="5" as="offset" />
          </mxGeometry>
        </mxCell>
        <mxCell id="o8l_43wtQ8dbo9lP84ha-47" style="edgeStyle=orthogonalEdgeStyle;shape=connector;rounded=1;orthogonalLoop=1;jettySize=auto;html=1;exitX=0.5;exitY=1;exitDx=0;exitDy=0;exitPerimeter=0;entryX=1;entryY=0.5;entryDx=0;entryDy=0;entryPerimeter=0;labelBackgroundColor=default;strokeColor=default;align=center;verticalAlign=middle;fontFamily=Helvetica;fontSize=11;fontColor=default;endArrow=classic;" parent="o8l_43wtQ8dbo9lP84ha-7" source="o8l_43wtQ8dbo9lP84ha-39" target="o8l_43wtQ8dbo9lP84ha-43" edge="1">
          <mxGeometry relative="1" as="geometry" />
        </mxCell>
        <mxCell id="o8l_43wtQ8dbo9lP84ha-48" style="edgeStyle=orthogonalEdgeStyle;shape=connector;rounded=1;orthogonalLoop=1;jettySize=auto;html=1;exitX=0;exitY=0.5;exitDx=0;exitDy=0;exitPerimeter=0;entryX=0.5;entryY=1;entryDx=0;entryDy=0;entryPerimeter=0;labelBackgroundColor=default;strokeColor=default;align=center;verticalAlign=middle;fontFamily=Helvetica;fontSize=11;fontColor=default;endArrow=classic;" parent="o8l_43wtQ8dbo9lP84ha-7" source="o8l_43wtQ8dbo9lP84ha-43" target="o8l_43wtQ8dbo9lP84ha-13" edge="1">
          <mxGeometry relative="1" as="geometry" />
        </mxCell>
        <mxCell id="o8l_43wtQ8dbo9lP84ha-49" value="Перейти на главную страницу" style="points=[[0.25,0,0],[0.5,0,0],[0.75,0,0],[1,0.25,0],[1,0.5,0],[1,0.75,0],[0.75,1,0],[0.5,1,0],[0.25,1,0],[0,0.75,0],[0,0.5,0],[0,0.25,0]];shape=mxgraph.bpmn.task;whiteSpace=wrap;rectStyle=rounded;size=10;html=1;container=1;expand=0;collapsible=0;taskMarker=abstract;fontSize=11;" parent="o8l_43wtQ8dbo9lP84ha-7" vertex="1">
          <mxGeometry x="759" y="25" width="90" height="60" as="geometry" />
        </mxCell>
        <mxCell id="o8l_43wtQ8dbo9lP84ha-50" value="Авторизация&lt;br style=&quot;font-size: 11px;&quot;&gt;успешна" style="points=[[0.145,0.145,0],[0.5,0,0],[0.855,0.145,0],[1,0.5,0],[0.855,0.855,0],[0.5,1,0],[0.145,0.855,0],[0,0.5,0]];shape=mxgraph.bpmn.event;html=1;verticalLabelPosition=bottom;labelBackgroundColor=#ffffff;verticalAlign=top;align=center;perimeter=ellipsePerimeter;outlineConnect=0;aspect=fixed;outline=end;symbol=terminate2;fontFamily=Helvetica;fontSize=11;fontColor=default;" parent="o8l_43wtQ8dbo9lP84ha-7" vertex="1">
          <mxGeometry x="889" y="40" width="30" height="30" as="geometry" />
        </mxCell>
        <mxCell id="o8l_43wtQ8dbo9lP84ha-51" style="edgeStyle=orthogonalEdgeStyle;shape=connector;rounded=1;orthogonalLoop=1;jettySize=auto;html=1;exitX=1;exitY=0.5;exitDx=0;exitDy=0;exitPerimeter=0;entryX=0;entryY=0.5;entryDx=0;entryDy=0;entryPerimeter=0;labelBackgroundColor=default;strokeColor=default;align=center;verticalAlign=middle;fontFamily=Helvetica;fontSize=11;fontColor=default;endArrow=classic;" parent="o8l_43wtQ8dbo9lP84ha-7" source="o8l_43wtQ8dbo9lP84ha-49" target="o8l_43wtQ8dbo9lP84ha-50" edge="1">
          <mxGeometry relative="1" as="geometry" />
        </mxCell>
        <mxCell id="-iVh2kzE6NEnTaStnf93-27" value="&lt;font style=&quot;font-size: 8px;&quot;&gt;(клиент)&lt;/font&gt;" style="text;html=1;strokeColor=none;fillColor=none;align=center;verticalAlign=middle;whiteSpace=wrap;rounded=0;" vertex="1" parent="o8l_43wtQ8dbo9lP84ha-7">
          <mxGeometry x="242" y="-2" width="60" height="30" as="geometry" />
        </mxCell>
        <mxCell id="-iVh2kzE6NEnTaStnf93-28" value="&lt;font style=&quot;font-size: 8px;&quot;&gt;(сервер)&lt;/font&gt;" style="text;html=1;strokeColor=none;fillColor=none;align=center;verticalAlign=middle;whiteSpace=wrap;rounded=0;" vertex="1" parent="o8l_43wtQ8dbo9lP84ha-7">
          <mxGeometry x="511" width="60" height="30" as="geometry" />
        </mxCell>
        <mxCell id="-iVh2kzE6NEnTaStnf93-29" value="&lt;font style=&quot;font-size: 8px;&quot;&gt;(клиент)&lt;/font&gt;" style="text;html=1;strokeColor=none;fillColor=none;align=center;verticalAlign=middle;whiteSpace=wrap;rounded=0;" vertex="1" parent="o8l_43wtQ8dbo9lP84ha-7">
          <mxGeometry x="772" y="97" width="60" height="30" as="geometry" />
        </mxCell>
        <mxCell id="-iVh2kzE6NEnTaStnf93-30" value="&lt;font style=&quot;font-size: 8px;&quot;&gt;(сервер)&lt;/font&gt;" style="text;html=1;strokeColor=none;fillColor=none;align=center;verticalAlign=middle;whiteSpace=wrap;rounded=0;" vertex="1" parent="o8l_43wtQ8dbo9lP84ha-7">
          <mxGeometry x="866" width="60" height="30" as="geometry" />
        </mxCell>
        <mxCell id="o8l_43wtQ8dbo9lP84ha-14" style="edgeStyle=orthogonalEdgeStyle;rounded=1;orthogonalLoop=1;jettySize=auto;html=1;exitX=0.5;exitY=1;exitDx=0;exitDy=0;exitPerimeter=0;fontSize=11;entryX=0;entryY=0.5;entryDx=0;entryDy=0;entryPerimeter=0;" parent="o8l_43wtQ8dbo9lP84ha-5" source="o8l_43wtQ8dbo9lP84ha-10" target="o8l_43wtQ8dbo9lP84ha-13" edge="1">
          <mxGeometry relative="1" as="geometry" />
        </mxCell>
        <mxCell id="o8l_43wtQ8dbo9lP84ha-21" value="Да" style="edgeLabel;html=1;align=center;verticalAlign=middle;resizable=0;points=[];fontSize=11;" parent="o8l_43wtQ8dbo9lP84ha-14" vertex="1" connectable="0">
          <mxGeometry x="-0.3228" y="1" relative="1" as="geometry">
            <mxPoint x="-1" y="-15" as="offset" />
          </mxGeometry>
        </mxCell>
        <mxCell id="o8l_43wtQ8dbo9lP84ha-34" style="edgeStyle=orthogonalEdgeStyle;rounded=1;orthogonalLoop=1;jettySize=auto;html=1;exitX=1;exitY=0.5;exitDx=0;exitDy=0;exitPerimeter=0;entryX=0.5;entryY=0;entryDx=0;entryDy=0;entryPerimeter=0;fontSize=11;" parent="o8l_43wtQ8dbo9lP84ha-5" source="o8l_43wtQ8dbo9lP84ha-20" target="o8l_43wtQ8dbo9lP84ha-13" edge="1">
          <mxGeometry relative="1" as="geometry">
            <mxPoint x="820" y="85" as="targetPoint" />
            <Array as="points">
              <mxPoint x="760" y="85" />
              <mxPoint x="760" y="226" />
              <mxPoint x="330" y="226" />
              <mxPoint x="330" y="280" />
            </Array>
          </mxGeometry>
        </mxCell>
        <mxCell id="o8l_43wtQ8dbo9lP84ha-35" value="Да" style="edgeLabel;html=1;align=center;verticalAlign=middle;resizable=0;points=[];fontSize=11;" parent="o8l_43wtQ8dbo9lP84ha-34" vertex="1" connectable="0">
          <mxGeometry x="-0.2568" y="-1" relative="1" as="geometry">
            <mxPoint x="-167" y="-1" as="offset" />
          </mxGeometry>
        </mxCell>
        <mxCell id="diVpED0s2V2y8v6c7H7y-1" value="Процесс записи к врачу" style="swimlane;html=1;childLayout=stackLayout;resizeParent=1;resizeParentMax=0;horizontal=0;startSize=20;horizontalStack=0;whiteSpace=wrap;fontStyle=0;fontFamily=Helvetica;fontSize=11;" parent="1" vertex="1">
          <mxGeometry x="29" y="498" width="820" height="245" as="geometry" />
        </mxCell>
        <mxCell id="diVpED0s2V2y8v6c7H7y-2" value="Пользователь" style="swimlane;html=1;startSize=20;horizontal=0;fontStyle=0;fontFamily=Helvetica;fontSize=11;" parent="diVpED0s2V2y8v6c7H7y-1" vertex="1">
          <mxGeometry x="20" width="800" height="245" as="geometry" />
        </mxCell>
        <mxCell id="-iVh2kzE6NEnTaStnf93-39" value="" style="rounded=0;whiteSpace=wrap;html=1;dashed=1;" vertex="1" parent="diVpED0s2V2y8v6c7H7y-2">
          <mxGeometry x="490" y="132" width="79" height="92" as="geometry" />
        </mxCell>
        <mxCell id="-iVh2kzE6NEnTaStnf93-37" value="" style="rounded=0;whiteSpace=wrap;html=1;dashed=1;" vertex="1" parent="diVpED0s2V2y8v6c7H7y-2">
          <mxGeometry x="704" y="63" width="82" height="86" as="geometry" />
        </mxCell>
        <mxCell id="-iVh2kzE6NEnTaStnf93-35" value="" style="rounded=0;whiteSpace=wrap;html=1;dashed=1;" vertex="1" parent="diVpED0s2V2y8v6c7H7y-2">
          <mxGeometry x="587" y="14" width="101" height="135" as="geometry" />
        </mxCell>
        <mxCell id="-iVh2kzE6NEnTaStnf93-33" value="" style="rounded=0;whiteSpace=wrap;html=1;dashed=1;" vertex="1" parent="diVpED0s2V2y8v6c7H7y-2">
          <mxGeometry x="485" y="14" width="96" height="107" as="geometry" />
        </mxCell>
        <mxCell id="-iVh2kzE6NEnTaStnf93-31" value="" style="rounded=0;whiteSpace=wrap;html=1;dashed=1;" vertex="1" parent="diVpED0s2V2y8v6c7H7y-2">
          <mxGeometry x="29.75" y="61" width="450.25" height="91" as="geometry" />
        </mxCell>
        <mxCell id="diVpED0s2V2y8v6c7H7y-3" value="Записаться на&amp;nbsp;&lt;br&gt;прием" style="points=[[0.145,0.145,0],[0.5,0,0],[0.855,0.145,0],[1,0.5,0],[0.855,0.855,0],[0.5,1,0],[0.145,0.855,0],[0,0.5,0]];shape=mxgraph.bpmn.event;html=1;verticalLabelPosition=bottom;labelBackgroundColor=#ffffff;verticalAlign=top;align=center;perimeter=ellipsePerimeter;outlineConnect=0;aspect=fixed;outline=standard;symbol=general;fontFamily=Helvetica;fontSize=11;" parent="diVpED0s2V2y8v6c7H7y-2" vertex="1">
          <mxGeometry x="57.5" y="85" width="30" height="30" as="geometry" />
        </mxCell>
        <mxCell id="diVpED0s2V2y8v6c7H7y-4" value="Открыть главную страницу" style="points=[[0.25,0,0],[0.5,0,0],[0.75,0,0],[1,0.25,0],[1,0.5,0],[1,0.75,0],[0.75,1,0],[0.5,1,0],[0.25,1,0],[0,0.75,0],[0,0.5,0],[0,0.25,0]];shape=mxgraph.bpmn.task;whiteSpace=wrap;rectStyle=rounded;size=10;html=1;container=1;expand=0;collapsible=0;taskMarker=abstract;fontFamily=Helvetica;fontSize=11;" parent="diVpED0s2V2y8v6c7H7y-2" vertex="1">
          <mxGeometry x="122.5" y="70" width="90" height="60" as="geometry" />
        </mxCell>
        <mxCell id="diVpED0s2V2y8v6c7H7y-5" style="edgeStyle=orthogonalEdgeStyle;shape=connector;rounded=1;orthogonalLoop=1;jettySize=auto;html=1;exitX=1;exitY=0.5;exitDx=0;exitDy=0;exitPerimeter=0;entryX=0;entryY=0.5;entryDx=0;entryDy=0;entryPerimeter=0;labelBackgroundColor=default;strokeColor=default;align=center;verticalAlign=middle;fontFamily=Helvetica;fontSize=11;fontColor=default;endArrow=classic;" parent="diVpED0s2V2y8v6c7H7y-2" source="diVpED0s2V2y8v6c7H7y-3" target="diVpED0s2V2y8v6c7H7y-4" edge="1">
          <mxGeometry relative="1" as="geometry" />
        </mxCell>
        <mxCell id="diVpED0s2V2y8v6c7H7y-6" style="edgeStyle=orthogonalEdgeStyle;shape=connector;rounded=1;orthogonalLoop=1;jettySize=auto;html=1;exitX=1;exitY=0.5;exitDx=0;exitDy=0;exitPerimeter=0;entryX=0;entryY=0.5;entryDx=0;entryDy=0;entryPerimeter=0;labelBackgroundColor=default;strokeColor=default;align=center;verticalAlign=middle;fontFamily=Helvetica;fontSize=11;fontColor=default;endArrow=classic;" parent="diVpED0s2V2y8v6c7H7y-2" source="diVpED0s2V2y8v6c7H7y-4" target="diVpED0s2V2y8v6c7H7y-8" edge="1">
          <mxGeometry relative="1" as="geometry">
            <mxPoint x="252.5" y="100" as="targetPoint" />
          </mxGeometry>
        </mxCell>
        <mxCell id="diVpED0s2V2y8v6c7H7y-7" value="Запись &lt;br&gt;осуществлена" style="points=[[0.145,0.145,0],[0.5,0,0],[0.855,0.145,0],[1,0.5,0],[0.855,0.855,0],[0.5,1,0],[0.145,0.855,0],[0,0.5,0]];shape=mxgraph.bpmn.event;html=1;verticalLabelPosition=bottom;labelBackgroundColor=#ffffff;verticalAlign=top;align=center;perimeter=ellipsePerimeter;outlineConnect=0;aspect=fixed;outline=end;symbol=terminate2;fontFamily=Helvetica;fontSize=11;fontColor=default;" parent="diVpED0s2V2y8v6c7H7y-2" vertex="1">
          <mxGeometry x="730" y="85.00000000000001" width="30" height="30" as="geometry" />
        </mxCell>
        <mxCell id="diVpED0s2V2y8v6c7H7y-8" value="Открыть окно записи на &lt;br&gt;прием" style="points=[[0.25,0,0],[0.5,0,0],[0.75,0,0],[1,0.25,0],[1,0.5,0],[1,0.75,0],[0.75,1,0],[0.5,1,0],[0.25,1,0],[0,0.75,0],[0,0.5,0],[0,0.25,0]];shape=mxgraph.bpmn.task;whiteSpace=wrap;rectStyle=rounded;size=10;html=1;container=1;expand=0;collapsible=0;taskMarker=abstract;fontFamily=Helvetica;fontSize=11;" parent="diVpED0s2V2y8v6c7H7y-2" vertex="1">
          <mxGeometry x="257.5" y="70" width="90" height="60" as="geometry" />
        </mxCell>
        <mxCell id="diVpED0s2V2y8v6c7H7y-13" style="edgeStyle=orthogonalEdgeStyle;rounded=0;orthogonalLoop=1;jettySize=auto;html=1;exitX=1;exitY=0.5;exitDx=0;exitDy=0;exitPerimeter=0;entryX=0;entryY=0.5;entryDx=0;entryDy=0;entryPerimeter=0;" parent="diVpED0s2V2y8v6c7H7y-2" source="diVpED0s2V2y8v6c7H7y-8" edge="1">
          <mxGeometry relative="1" as="geometry">
            <mxPoint x="387.5" y="99.99999999999996" as="targetPoint" />
          </mxGeometry>
        </mxCell>
        <mxCell id="U1I2TKBbg89leGp0P6DT-7" style="edgeStyle=orthogonalEdgeStyle;rounded=0;orthogonalLoop=1;jettySize=auto;html=1;exitX=1;exitY=0.5;exitDx=0;exitDy=0;exitPerimeter=0;entryX=0;entryY=0.5;entryDx=0;entryDy=0;entryPerimeter=0;" parent="diVpED0s2V2y8v6c7H7y-2" source="diVpED0s2V2y8v6c7H7y-14" target="U1I2TKBbg89leGp0P6DT-5" edge="1">
          <mxGeometry relative="1" as="geometry" />
        </mxCell>
        <mxCell id="diVpED0s2V2y8v6c7H7y-14" value="Заполнить анкету для записи на прием" style="points=[[0.25,0,0],[0.5,0,0],[0.75,0,0],[1,0.25,0],[1,0.5,0],[1,0.75,0],[0.75,1,0],[0.5,1,0],[0.25,1,0],[0,0.75,0],[0,0.5,0],[0,0.25,0]];shape=mxgraph.bpmn.task;whiteSpace=wrap;rectStyle=rounded;size=10;html=1;container=1;expand=0;collapsible=0;taskMarker=abstract;fontFamily=Helvetica;fontSize=11;" parent="diVpED0s2V2y8v6c7H7y-2" vertex="1">
          <mxGeometry x="387.5" y="70" width="90" height="60" as="geometry" />
        </mxCell>
        <mxCell id="diVpED0s2V2y8v6c7H7y-15" value="&lt;font style=&quot;font-size: 10px;&quot;&gt;Записаться на прием&lt;/font&gt;" style="points=[[0.25,0,0],[0.5,0,0],[0.75,0,0],[1,0.25,0],[1,0.5,0],[1,0.75,0],[0.75,1,0],[0.5,1,0],[0.25,1,0],[0,0.75,0],[0,0.5,0],[0,0.25,0]];shape=mxgraph.bpmn.task;whiteSpace=wrap;rectStyle=rounded;size=10;html=1;container=1;expand=0;collapsible=0;taskMarker=abstract;fontFamily=Helvetica;fontSize=11;" parent="diVpED0s2V2y8v6c7H7y-2" vertex="1">
          <mxGeometry x="590.5" y="70" width="90" height="60" as="geometry" />
        </mxCell>
        <mxCell id="diVpED0s2V2y8v6c7H7y-17" value="Запись не&lt;br style=&quot;border-color: var(--border-color);&quot;&gt;осуществлена" style="points=[[0.145,0.145,0],[0.5,0,0],[0.855,0.145,0],[1,0.5,0],[0.855,0.855,0],[0.5,1,0],[0.145,0.855,0],[0,0.5,0]];shape=mxgraph.bpmn.event;html=1;verticalLabelPosition=bottom;labelBackgroundColor=#ffffff;verticalAlign=top;align=center;perimeter=ellipsePerimeter;outlineConnect=0;aspect=fixed;outline=end;symbol=terminate2;fontFamily=Helvetica;fontSize=11;fontColor=default;" parent="diVpED0s2V2y8v6c7H7y-2" vertex="1">
          <mxGeometry x="514.5" y="158" width="30" height="30" as="geometry" />
        </mxCell>
        <mxCell id="diVpED0s2V2y8v6c7H7y-19" style="edgeStyle=orthogonalEdgeStyle;rounded=0;orthogonalLoop=1;jettySize=auto;html=1;exitX=1;exitY=0.5;exitDx=0;exitDy=0;exitPerimeter=0;entryX=0;entryY=0.5;entryDx=0;entryDy=0;entryPerimeter=0;" parent="diVpED0s2V2y8v6c7H7y-2" source="diVpED0s2V2y8v6c7H7y-15" target="diVpED0s2V2y8v6c7H7y-7" edge="1">
          <mxGeometry relative="1" as="geometry">
            <mxPoint x="725.5" y="99.95" as="targetPoint" />
          </mxGeometry>
        </mxCell>
        <mxCell id="U1I2TKBbg89leGp0P6DT-9" style="edgeStyle=orthogonalEdgeStyle;rounded=0;orthogonalLoop=1;jettySize=auto;html=1;exitX=1;exitY=0.5;exitDx=0;exitDy=0;exitPerimeter=0;entryX=0;entryY=0.5;entryDx=0;entryDy=0;entryPerimeter=0;" parent="diVpED0s2V2y8v6c7H7y-2" source="U1I2TKBbg89leGp0P6DT-5" target="diVpED0s2V2y8v6c7H7y-15" edge="1">
          <mxGeometry relative="1" as="geometry" />
        </mxCell>
        <mxCell id="U1I2TKBbg89leGp0P6DT-14" style="edgeStyle=orthogonalEdgeStyle;rounded=0;orthogonalLoop=1;jettySize=auto;html=1;exitX=0.5;exitY=1;exitDx=0;exitDy=0;exitPerimeter=0;entryX=0.5;entryY=0;entryDx=0;entryDy=0;entryPerimeter=0;" parent="diVpED0s2V2y8v6c7H7y-2" source="U1I2TKBbg89leGp0P6DT-5" target="diVpED0s2V2y8v6c7H7y-17" edge="1">
          <mxGeometry relative="1" as="geometry" />
        </mxCell>
        <mxCell id="U1I2TKBbg89leGp0P6DT-5" value="" style="points=[[0.25,0.25,0],[0.5,0,0],[0.75,0.25,0],[1,0.5,0],[0.75,0.75,0],[0.5,1,0],[0.25,0.75,0],[0,0.5,0]];shape=mxgraph.bpmn.gateway2;html=1;verticalLabelPosition=bottom;labelBackgroundColor=#ffffff;verticalAlign=top;align=center;perimeter=rhombusPerimeter;outlineConnect=0;outline=none;symbol=none;gwType=exclusive;fontFamily=Helvetica;fontSize=11;" parent="diVpED0s2V2y8v6c7H7y-2" vertex="1">
          <mxGeometry x="514.5" y="84.99999999999996" width="30" height="30" as="geometry" />
        </mxCell>
        <mxCell id="U1I2TKBbg89leGp0P6DT-6" value="Возможна ли&lt;br&gt;запись на нужное время?" style="text;html=1;strokeColor=none;fillColor=none;align=center;verticalAlign=middle;whiteSpace=wrap;rounded=0;fontFamily=Helvetica;fontSize=11;" parent="diVpED0s2V2y8v6c7H7y-2" vertex="1">
          <mxGeometry x="479" y="43" width="110" height="30" as="geometry" />
        </mxCell>
        <mxCell id="U1I2TKBbg89leGp0P6DT-11" value="Да" style="edgeLabel;html=1;align=center;verticalAlign=middle;resizable=0;points=[];" parent="diVpED0s2V2y8v6c7H7y-2" vertex="1" connectable="0">
          <mxGeometry x="560.5" y="99.99999999999996" as="geometry" />
        </mxCell>
        <mxCell id="-iVh2kzE6NEnTaStnf93-32" value="&lt;font style=&quot;font-size: 8px;&quot;&gt;(клиент)&lt;/font&gt;" style="text;html=1;strokeColor=none;fillColor=none;align=center;verticalAlign=middle;whiteSpace=wrap;rounded=0;" vertex="1" parent="diVpED0s2V2y8v6c7H7y-2">
          <mxGeometry x="18" y="53" width="60" height="30" as="geometry" />
        </mxCell>
        <mxCell id="-iVh2kzE6NEnTaStnf93-34" value="&lt;font style=&quot;font-size: 8px;&quot;&gt;(сервер)&lt;/font&gt;" style="text;html=1;strokeColor=none;fillColor=none;align=center;verticalAlign=middle;whiteSpace=wrap;rounded=0;" vertex="1" parent="diVpED0s2V2y8v6c7H7y-2">
          <mxGeometry x="472" y="4" width="60" height="30" as="geometry" />
        </mxCell>
        <mxCell id="-iVh2kzE6NEnTaStnf93-36" value="&lt;font style=&quot;font-size: 8px;&quot;&gt;(клиент)&lt;/font&gt;" style="text;html=1;strokeColor=none;fillColor=none;align=center;verticalAlign=middle;whiteSpace=wrap;rounded=0;" vertex="1" parent="diVpED0s2V2y8v6c7H7y-2">
          <mxGeometry x="584" y="7" width="60" height="30" as="geometry" />
        </mxCell>
        <mxCell id="-iVh2kzE6NEnTaStnf93-38" value="&lt;font style=&quot;font-size: 8px;&quot;&gt;(сервер)&lt;/font&gt;" style="text;html=1;strokeColor=none;fillColor=none;align=center;verticalAlign=middle;whiteSpace=wrap;rounded=0;" vertex="1" parent="diVpED0s2V2y8v6c7H7y-2">
          <mxGeometry x="696" y="53" width="60" height="30" as="geometry" />
        </mxCell>
        <mxCell id="-iVh2kzE6NEnTaStnf93-40" value="&lt;font style=&quot;font-size: 8px;&quot;&gt;(сервер)&lt;/font&gt;" style="text;html=1;strokeColor=none;fillColor=none;align=center;verticalAlign=middle;whiteSpace=wrap;rounded=0;" vertex="1" parent="diVpED0s2V2y8v6c7H7y-2">
          <mxGeometry x="477.5" y="125" width="60" height="30" as="geometry" />
        </mxCell>
        <mxCell id="X6GP2EyedPIOFzzKjwgC-1" value="Процесс изменения/отмены записи" style="swimlane;html=1;childLayout=stackLayout;resizeParent=1;resizeParentMax=0;horizontal=0;startSize=20;horizontalStack=0;whiteSpace=wrap;fontStyle=0;fontFamily=Helvetica;fontSize=11;" parent="1" vertex="1">
          <mxGeometry x="29" y="760" width="764" height="240" as="geometry" />
        </mxCell>
        <mxCell id="X6GP2EyedPIOFzzKjwgC-2" value="Пользователь" style="swimlane;html=1;startSize=20;horizontal=0;fontStyle=0;fontFamily=Helvetica;fontSize=11;" parent="X6GP2EyedPIOFzzKjwgC-1" vertex="1">
          <mxGeometry x="20" width="744" height="240" as="geometry" />
        </mxCell>
        <mxCell id="-iVh2kzE6NEnTaStnf93-43" value="" style="rounded=0;whiteSpace=wrap;html=1;dashed=1;" vertex="1" parent="X6GP2EyedPIOFzzKjwgC-2">
          <mxGeometry x="659" y="40" width="79" height="190" as="geometry" />
        </mxCell>
        <mxCell id="-iVh2kzE6NEnTaStnf93-41" value="" style="rounded=0;whiteSpace=wrap;html=1;dashed=1;" vertex="1" parent="X6GP2EyedPIOFzzKjwgC-2">
          <mxGeometry x="29" y="41" width="622" height="189" as="geometry" />
        </mxCell>
        <mxCell id="X6GP2EyedPIOFzzKjwgC-3" value="Изменить&lt;br&gt;запись" style="points=[[0.145,0.145,0],[0.5,0,0],[0.855,0.145,0],[1,0.5,0],[0.855,0.855,0],[0.5,1,0],[0.145,0.855,0],[0,0.5,0]];shape=mxgraph.bpmn.event;html=1;verticalLabelPosition=bottom;labelBackgroundColor=#ffffff;verticalAlign=top;align=center;perimeter=ellipsePerimeter;outlineConnect=0;aspect=fixed;outline=standard;symbol=general;fontFamily=Helvetica;fontSize=11;" parent="X6GP2EyedPIOFzzKjwgC-2" vertex="1">
          <mxGeometry x="50" y="74" width="30" height="30" as="geometry" />
        </mxCell>
        <mxCell id="X6GP2EyedPIOFzzKjwgC-4" value="Открыть страницу с существующими записями" style="points=[[0.25,0,0],[0.5,0,0],[0.75,0,0],[1,0.25,0],[1,0.5,0],[1,0.75,0],[0.75,1,0],[0.5,1,0],[0.25,1,0],[0,0.75,0],[0,0.5,0],[0,0.25,0]];shape=mxgraph.bpmn.task;whiteSpace=wrap;rectStyle=rounded;size=10;html=1;container=1;expand=0;collapsible=0;taskMarker=abstract;fontFamily=Helvetica;fontSize=11;" parent="X6GP2EyedPIOFzzKjwgC-2" vertex="1">
          <mxGeometry x="130" y="59" width="90" height="60" as="geometry" />
        </mxCell>
        <mxCell id="X6GP2EyedPIOFzzKjwgC-5" style="edgeStyle=orthogonalEdgeStyle;shape=connector;rounded=1;orthogonalLoop=1;jettySize=auto;html=1;exitX=1;exitY=0.5;exitDx=0;exitDy=0;exitPerimeter=0;labelBackgroundColor=default;strokeColor=default;align=center;verticalAlign=middle;fontFamily=Helvetica;fontSize=11;fontColor=default;endArrow=classic;" parent="X6GP2EyedPIOFzzKjwgC-2" source="X6GP2EyedPIOFzzKjwgC-3" target="X6GP2EyedPIOFzzKjwgC-4" edge="1">
          <mxGeometry relative="1" as="geometry" />
        </mxCell>
        <mxCell id="X6GP2EyedPIOFzzKjwgC-6" value="Выбрать нужную запись" style="points=[[0.25,0,0],[0.5,0,0],[0.75,0,0],[1,0.25,0],[1,0.5,0],[1,0.75,0],[0.75,1,0],[0.5,1,0],[0.25,1,0],[0,0.75,0],[0,0.5,0],[0,0.25,0]];shape=mxgraph.bpmn.task;whiteSpace=wrap;rectStyle=rounded;size=10;html=1;container=1;expand=0;collapsible=0;taskMarker=abstract;fontFamily=Helvetica;fontSize=11;" parent="X6GP2EyedPIOFzzKjwgC-2" vertex="1">
          <mxGeometry x="265" y="59" width="90" height="60" as="geometry" />
        </mxCell>
        <mxCell id="X6GP2EyedPIOFzzKjwgC-7" style="edgeStyle=orthogonalEdgeStyle;shape=connector;rounded=1;orthogonalLoop=1;jettySize=auto;html=1;exitX=1;exitY=0.5;exitDx=0;exitDy=0;exitPerimeter=0;entryX=0;entryY=0.5;entryDx=0;entryDy=0;entryPerimeter=0;labelBackgroundColor=default;strokeColor=default;align=center;verticalAlign=middle;fontFamily=Helvetica;fontSize=11;fontColor=default;endArrow=classic;" parent="X6GP2EyedPIOFzzKjwgC-2" source="X6GP2EyedPIOFzzKjwgC-4" target="X6GP2EyedPIOFzzKjwgC-6" edge="1">
          <mxGeometry relative="1" as="geometry" />
        </mxCell>
        <mxCell id="X6GP2EyedPIOFzzKjwgC-8" style="edgeStyle=orthogonalEdgeStyle;rounded=0;orthogonalLoop=1;jettySize=auto;html=1;exitX=1;exitY=0.5;exitDx=0;exitDy=0;exitPerimeter=0;" parent="X6GP2EyedPIOFzzKjwgC-2" source="X6GP2EyedPIOFzzKjwgC-10" target="X6GP2EyedPIOFzzKjwgC-14" edge="1">
          <mxGeometry relative="1" as="geometry" />
        </mxCell>
        <mxCell id="X6GP2EyedPIOFzzKjwgC-9" style="edgeStyle=orthogonalEdgeStyle;rounded=0;orthogonalLoop=1;jettySize=auto;html=1;exitX=0.5;exitY=1;exitDx=0;exitDy=0;exitPerimeter=0;entryX=0.5;entryY=0;entryDx=0;entryDy=0;entryPerimeter=0;" parent="X6GP2EyedPIOFzzKjwgC-2" source="X6GP2EyedPIOFzzKjwgC-10" target="X6GP2EyedPIOFzzKjwgC-18" edge="1">
          <mxGeometry relative="1" as="geometry" />
        </mxCell>
        <mxCell id="X6GP2EyedPIOFzzKjwgC-10" value="" style="points=[[0.25,0.25,0],[0.5,0,0],[0.75,0.25,0],[1,0.5,0],[0.75,0.75,0],[0.5,1,0],[0.25,0.75,0],[0,0.5,0]];shape=mxgraph.bpmn.gateway2;html=1;verticalLabelPosition=bottom;labelBackgroundColor=#ffffff;verticalAlign=top;align=center;perimeter=rhombusPerimeter;outlineConnect=0;outline=none;symbol=none;gwType=exclusive;fontFamily=Helvetica;fontSize=11;" parent="X6GP2EyedPIOFzzKjwgC-2" vertex="1">
          <mxGeometry x="405" y="74" width="30" height="30" as="geometry" />
        </mxCell>
        <mxCell id="X6GP2EyedPIOFzzKjwgC-11" value="Отменить?" style="text;html=1;strokeColor=none;fillColor=none;align=center;verticalAlign=middle;whiteSpace=wrap;rounded=0;fontFamily=Helvetica;fontSize=11;" parent="X6GP2EyedPIOFzzKjwgC-2" vertex="1">
          <mxGeometry x="365" y="44" width="110" height="30" as="geometry" />
        </mxCell>
        <mxCell id="X6GP2EyedPIOFzzKjwgC-12" style="edgeStyle=orthogonalEdgeStyle;shape=connector;rounded=1;orthogonalLoop=1;jettySize=auto;html=1;exitX=1;exitY=0.5;exitDx=0;exitDy=0;exitPerimeter=0;entryX=0;entryY=0.5;entryDx=0;entryDy=0;entryPerimeter=0;labelBackgroundColor=default;strokeColor=default;align=center;verticalAlign=middle;fontFamily=Helvetica;fontSize=11;fontColor=default;endArrow=classic;" parent="X6GP2EyedPIOFzzKjwgC-2" source="X6GP2EyedPIOFzzKjwgC-6" target="X6GP2EyedPIOFzzKjwgC-10" edge="1">
          <mxGeometry relative="1" as="geometry" />
        </mxCell>
        <mxCell id="X6GP2EyedPIOFzzKjwgC-13" style="edgeStyle=orthogonalEdgeStyle;rounded=0;orthogonalLoop=1;jettySize=auto;html=1;exitX=1;exitY=0.5;exitDx=0;exitDy=0;exitPerimeter=0;entryX=0;entryY=0.5;entryDx=0;entryDy=0;entryPerimeter=0;" parent="X6GP2EyedPIOFzzKjwgC-2" source="X6GP2EyedPIOFzzKjwgC-14" target="X6GP2EyedPIOFzzKjwgC-15" edge="1">
          <mxGeometry relative="1" as="geometry" />
        </mxCell>
        <mxCell id="X6GP2EyedPIOFzzKjwgC-14" value="Отменить запись" style="points=[[0.25,0,0],[0.5,0,0],[0.75,0,0],[1,0.25,0],[1,0.5,0],[1,0.75,0],[0.75,1,0],[0.5,1,0],[0.25,1,0],[0,0.75,0],[0,0.5,0],[0,0.25,0]];shape=mxgraph.bpmn.task;whiteSpace=wrap;rectStyle=rounded;size=10;html=1;container=1;expand=0;collapsible=0;taskMarker=abstract;fontFamily=Helvetica;fontSize=11;" parent="X6GP2EyedPIOFzzKjwgC-2" vertex="1">
          <mxGeometry x="525" y="59" width="90" height="60" as="geometry" />
        </mxCell>
        <mxCell id="X6GP2EyedPIOFzzKjwgC-15" value="Запись &lt;br&gt;отменена" style="points=[[0.145,0.145,0],[0.5,0,0],[0.855,0.145,0],[1,0.5,0],[0.855,0.855,0],[0.5,1,0],[0.145,0.855,0],[0,0.5,0]];shape=mxgraph.bpmn.event;html=1;verticalLabelPosition=bottom;labelBackgroundColor=#ffffff;verticalAlign=top;align=center;perimeter=ellipsePerimeter;outlineConnect=0;aspect=fixed;outline=end;symbol=terminate2;fontFamily=Helvetica;fontSize=11;fontColor=default;" parent="X6GP2EyedPIOFzzKjwgC-2" vertex="1">
          <mxGeometry x="688" y="74" width="30" height="30" as="geometry" />
        </mxCell>
        <mxCell id="X6GP2EyedPIOFzzKjwgC-16" value="Да" style="edgeLabel;html=1;align=center;verticalAlign=middle;resizable=0;points=[];fontSize=11;fontFamily=Helvetica;fontColor=default;" parent="X6GP2EyedPIOFzzKjwgC-2" vertex="1" connectable="0">
          <mxGeometry x="452" y="89" as="geometry" />
        </mxCell>
        <mxCell id="X6GP2EyedPIOFzzKjwgC-17" style="edgeStyle=orthogonalEdgeStyle;rounded=0;orthogonalLoop=1;jettySize=auto;html=1;exitX=1;exitY=0.5;exitDx=0;exitDy=0;exitPerimeter=0;entryX=0;entryY=0.5;entryDx=0;entryDy=0;entryPerimeter=0;" parent="X6GP2EyedPIOFzzKjwgC-2" source="X6GP2EyedPIOFzzKjwgC-18" target="X6GP2EyedPIOFzzKjwgC-19" edge="1">
          <mxGeometry relative="1" as="geometry" />
        </mxCell>
        <mxCell id="X6GP2EyedPIOFzzKjwgC-18" value="Изменить данные записи" style="points=[[0.25,0,0],[0.5,0,0],[0.75,0,0],[1,0.25,0],[1,0.5,0],[1,0.75,0],[0.75,1,0],[0.5,1,0],[0.25,1,0],[0,0.75,0],[0,0.5,0],[0,0.25,0]];shape=mxgraph.bpmn.task;whiteSpace=wrap;rectStyle=rounded;size=10;html=1;container=1;expand=0;collapsible=0;taskMarker=abstract;fontFamily=Helvetica;fontSize=11;" parent="X6GP2EyedPIOFzzKjwgC-2" vertex="1">
          <mxGeometry x="375" y="150" width="90" height="60" as="geometry" />
        </mxCell>
        <mxCell id="X6GP2EyedPIOFzzKjwgC-19" value="Запись &lt;br&gt;изменена" style="points=[[0.145,0.145,0],[0.5,0,0],[0.855,0.145,0],[1,0.5,0],[0.855,0.855,0],[0.5,1,0],[0.145,0.855,0],[0,0.5,0]];shape=mxgraph.bpmn.event;html=1;verticalLabelPosition=bottom;labelBackgroundColor=#ffffff;verticalAlign=top;align=center;perimeter=ellipsePerimeter;outlineConnect=0;aspect=fixed;outline=end;symbol=terminate2;fontFamily=Helvetica;fontSize=11;fontColor=default;" parent="X6GP2EyedPIOFzzKjwgC-2" vertex="1">
          <mxGeometry x="688" y="165" width="30" height="30" as="geometry" />
        </mxCell>
        <mxCell id="-iVh2kzE6NEnTaStnf93-42" value="&lt;font style=&quot;font-size: 8px;&quot;&gt;(клиент)&lt;/font&gt;" style="text;html=1;strokeColor=none;fillColor=none;align=center;verticalAlign=middle;whiteSpace=wrap;rounded=0;" vertex="1" parent="X6GP2EyedPIOFzzKjwgC-2">
          <mxGeometry x="20" y="32" width="60" height="30" as="geometry" />
        </mxCell>
        <mxCell id="-iVh2kzE6NEnTaStnf93-44" value="&lt;font style=&quot;font-size: 8px;&quot;&gt;(сервер)&lt;/font&gt;" style="text;html=1;strokeColor=none;fillColor=none;align=center;verticalAlign=middle;whiteSpace=wrap;rounded=0;" vertex="1" parent="X6GP2EyedPIOFzzKjwgC-2">
          <mxGeometry x="648" y="32" width="60" height="30" as="geometry" />
        </mxCell>
      </root>
    </mxGraphModel>
  </diagram>
</mxfile>
